<svg width="94" height="94" viewBox="0 0 94 94" fill="none" xmlns="http://www.w3.org/2000/svg">
<g clip-path="url(#clip0_9831_2)">
<path d="M46.783 3C22.641 3 3 22.641 3 46.783C3 70.93 22.641 90.576 46.783 90.576C70.93 90.576 90.576 70.93 90.576 46.783C90.576 22.641 70.931 3 46.783 3ZM46.783 81.662C27.556 81.662 11.915 66.016 11.915 46.783C11.915 27.557 27.557 11.916 46.783 11.916C66.014 11.916 81.661 27.558 81.661 46.783C81.661 66.015 66.015 81.662 46.783 81.662Z" fill="#6BEFA3"/>
<path d="M46.783 0C20.987 0 0 20.987 0 46.783C0 72.585 20.987 93.576 46.783 93.576C72.585 93.576 93.576 72.585 93.576 46.783C93.576 20.987 72.585 0 46.783 0ZM46.783 90.576C22.641 90.576 3 70.93 3 46.783C3 22.641 22.641 3 46.783 3C70.93 3 90.576 22.641 90.576 46.782C90.576 70.93 70.931 90.576 46.783 90.576Z" fill="black"/>
<path d="M51.519 53.923C51.519 53.507 51.422 53.351 51.276 53.215C51.245 53.186 51.18 53.133 51.063 53.062V54.643C51.519 54.377 51.519 54.075 51.519 53.923Z" fill="white"/>
<path d="M42.734 38.013V38.117C42.734 38.467 42.843 38.596 42.946 38.691C42.971 38.713 43.054 38.781 43.244 38.88V37.276C43.123 37.335 43.056 37.384 43.023 37.413C42.785 37.623 42.734 37.805 42.734 38.013Z" fill="white"/>
<path d="M46.783 14.916C29.211 14.916 14.915 29.212 14.915 46.783C14.915 64.361 29.211 78.662 46.783 78.662C64.36 78.662 78.661 64.361 78.661 46.783C78.661 29.211 64.36 14.916 46.783 14.916ZM63.032 53.258C63.032 55.041 62.906 56.686 62.236 58.145C61.553 59.599 60.699 60.869 59.48 61.932C58.275 62.977 56.764 63.816 55.103 64.427C53.857 64.883 53.032 65.22 51.032 65.433V70.318H43.032V65.321C41.032 64.993 38.593 64.451 36.53 63.707C34.022 62.806 31.668 61.594 29.6 60.106L28.4 59.254L34.724 49.902L35.971 50.793C37.508 51.887 38.957 52.775 40.449 53.434C41.318 53.817 42.032 54.134 43.032 54.383V51.229C41.032 50.798 39.961 50.325 38.613 49.791C36.912 49.124 35.494 48.285 34.319 47.301C33.108 46.295 32.388 45.081 31.757 43.699C31.132 42.328 31.031 40.711 31.031 38.89V38.787C31.031 37.061 31.157 35.451 31.79 34.001C32.413 32.551 33.251 31.253 34.471 30.151C35.655 29.086 37.085 28.217 38.782 27.569C40.069 27.077 41.031 26.727 43.031 26.527V23.317H51.031V26.731C53.031 27.015 54.611 27.452 56.123 28.033C58.037 28.774 59.913 29.718 61.536 30.838L62.747 31.645L56.95 41.135L55.654 40.215C54.662 39.517 53.582 38.924 52.506 38.455C52.016 38.243 52.031 38.057 51.031 37.892V40.711C53.031 41.143 54.234 41.635 55.55 42.181C57.227 42.882 58.673 43.73 59.814 44.703C61.024 45.732 61.739 46.968 62.339 48.374C62.933 49.776 63.03 51.382 63.03 53.148V53.258H63.032Z" fill="white"/>
<path d="M46.783 11.916C27.556 11.916 11.915 27.558 11.915 46.783C11.915 66.015 27.557 81.662 46.783 81.662C66.014 81.662 81.661 66.016 81.661 46.783C81.661 27.557 66.015 11.916 46.783 11.916ZM46.783 78.662C29.211 78.662 14.915 64.361 14.915 46.783C14.915 29.212 29.211 14.916 46.783 14.916C64.36 14.916 78.661 29.212 78.661 46.783C78.661 64.361 64.36 78.662 46.783 78.662Z" fill="black"/>
<path d="M57.889 46.988C56.983 46.216 55.821 45.53 54.435 44.951C52.975 44.346 51.198 43.806 49.23 43.349L48.032 43.079V34.011L49.907 34.437C51.137 34.721 52.434 35.147 53.724 35.703C54.513 36.048 55.295 36.445 56.045 36.893L58.719 32.54C57.618 31.882 56.445 31.311 55.211 30.832C53.563 30.199 51.539 29.76 49.528 29.528L48.034 29.375V26.317H46.034V29.285L44.619 29.382C42.813 29.508 41.185 29.841 39.798 30.372C38.446 30.888 37.297 31.563 36.391 32.38C35.496 33.188 35.004 34.134 34.549 35.193C34.079 36.271 34.034 37.478 34.034 38.788V38.891C34.034 40.279 34.065 41.478 34.511 42.455C34.958 43.436 35.504 44.268 36.383 44.998C37.313 45.777 38.445 46.45 39.848 47C41.343 47.593 42.997 48.128 44.984 48.594L46.034 48.865V58.043L44.359 57.735C42.61 57.429 40.929 56.906 39.281 56.18C38.019 55.623 36.759 54.926 35.478 54.1L32.519 58.486C34.042 59.445 35.708 60.25 37.475 60.884C39.761 61.71 42.147 62.241 44.625 62.511L46.034 62.657V67.319H48.034V62.737L49.51 62.611C51.18 62.458 52.789 62.121 54.182 61.612C55.496 61.128 56.663 60.473 57.591 59.67C58.491 58.885 59.004 57.946 59.503 56.884C59.985 55.832 60.034 54.609 60.034 53.26V53.151C60.034 51.789 60.026 50.577 59.591 49.55C59.174 48.577 58.743 47.714 57.889 46.988ZM46.032 42.967L44.245 42.452C42.568 41.997 41.681 41.506 41.02 40.906C40.239 40.188 40.031 39.226 40.031 38.116V38.012C40.031 36.897 40.337 35.908 41.199 35.151C41.994 34.463 42.979 34.066 44.588 33.933L46.031 33.799V42.967H46.032ZM49.704 58.053L48.033 58.226V48.897L49.957 49.438C51.572 49.896 52.644 50.399 53.312 51.02C54.097 51.752 54.507 52.721 54.507 53.825C54.507 55.279 53.879 57.617 49.704 58.053Z" fill="#6BEFA3"/>
<path d="M59.834 44.704C58.692 43.73 57.228 42.883 55.551 42.182C54.235 41.636 53.032 41.144 51.032 40.712V37.893C52.032 38.058 52.022 38.245 52.512 38.456C53.587 38.925 54.654 39.518 55.647 40.216L56.963 41.136L62.786 31.646L61.619 30.839C59.996 29.719 58.038 28.776 56.124 28.034C54.611 27.453 53.033 27.016 51.033 26.732V23.318H43.033V26.528C41.033 26.728 40.022 27.078 38.735 27.57C37.039 28.218 35.569 29.087 34.385 30.152C33.165 31.254 32.42 32.551 31.797 34.002C31.164 35.452 31.033 37.063 31.033 38.788V38.891C31.033 40.711 31.155 42.329 31.78 43.7C32.411 45.082 33.249 46.296 34.46 47.302C35.635 48.286 36.962 49.125 38.663 49.792C40.011 50.326 41.033 50.8 43.033 51.23V54.384C42.033 54.135 41.317 53.818 40.448 53.435C38.956 52.777 37.463 51.888 35.926 50.794L34.696 49.903L28.373 59.255L29.562 60.107C31.629 61.594 34.021 62.806 36.528 63.708C38.591 64.452 41.033 64.994 43.033 65.322V70.319H51.033V65.434C53.033 65.221 53.911 64.884 55.157 64.428C56.817 63.817 58.325 62.978 59.53 61.933C60.749 60.87 61.526 59.6 62.208 58.146C62.878 56.687 63.033 55.042 63.033 53.259V53.15C63.033 51.383 62.945 49.778 62.351 48.376C61.75 46.968 61.044 45.733 59.834 44.704ZM60.032 53.258C60.032 54.607 59.997 55.83 59.515 56.882C59.016 57.945 58.411 58.883 57.511 59.668C56.583 60.472 55.498 61.126 54.183 61.61C52.79 62.119 51.151 62.456 49.481 62.609L48.032 62.735V67.317H46.032V62.655L44.626 62.509C42.147 62.239 39.799 61.708 37.513 60.882C35.745 60.247 34.068 59.443 32.545 58.484L35.506 54.098C36.787 54.924 38.064 55.621 39.326 56.178C40.974 56.904 42.611 57.427 44.36 57.733L46.033 58.041V48.863L44.959 48.592C42.973 48.126 41.252 47.591 39.757 46.998C38.354 46.448 37.194 45.775 36.264 44.996C35.385 44.267 34.947 43.434 34.5 42.453C34.054 41.475 34.033 40.276 34.033 38.889V38.786C34.033 37.476 34.075 36.269 34.545 35.191C35 34.132 35.587 33.186 36.482 32.378C37.388 31.562 38.484 30.886 39.836 30.37C41.224 29.839 42.837 29.506 44.643 29.38L46.034 29.283V26.315H48.034V29.373L49.53 29.526C51.541 29.757 53.482 30.197 55.13 30.83C56.364 31.309 57.582 31.88 58.683 32.538L56.035 36.891C55.285 36.443 54.523 36.045 53.734 35.701C52.444 35.145 51.134 34.72 49.904 34.435L48.035 34.009V43.077L49.233 43.347C51.201 43.804 52.959 44.343 54.419 44.949C55.805 45.528 56.976 46.214 57.882 46.986C58.736 47.713 59.172 48.575 59.587 49.547C60.022 50.573 60.034 51.785 60.034 53.148V53.258H60.032Z" fill="black"/>
<path d="M49.957 49.438L48.033 48.897V58.226L49.704 58.053C53.88 57.616 54.511 55.279 54.511 53.824C54.511 52.72 54.093 51.752 53.308 51.019C52.64 50.399 51.572 49.896 49.957 49.438ZM51.063 53.062C51.18 53.133 51.245 53.186 51.276 53.215C51.422 53.351 51.519 53.507 51.519 53.923C51.519 54.074 51.519 54.377 51.063 54.643V53.062Z" fill="black"/>
<path d="M41.201 35.152C40.339 35.909 40.033 36.898 40.033 38.013V38.117C40.033 39.227 40.293 40.189 41.075 40.907C41.736 41.507 42.645 41.998 44.321 42.453L46.033 42.968V33.8L44.59 33.934C42.98 34.067 41.996 34.463 41.201 35.152ZM43.244 38.88C43.055 38.78 42.972 38.713 42.946 38.691C42.843 38.596 42.734 38.466 42.734 38.117V38.013C42.734 37.805 42.785 37.622 43.023 37.413C43.055 37.385 43.123 37.335 43.244 37.276V38.88V38.88Z" fill="black"/>
</g>
<defs>
<clipPath id="clip0_9831_2">
<rect width="93.576" height="93.576" fill="white"/>
</clipPath>
</defs>
</svg>
